<svg xmlns="http://www.w3.org/2000/svg">
  <defs>
    <symbol id="palette" viewBox="0 0 330 330"><path d="M165 0C74.019 0 0 74.019 0 165s74.019 165 165 165c24.814 0 45-20.187 45-45s-20.186-45-45-45c-8.271 0-15-6.729-15-15s6.729-15 15-15h146.996a15 15 0 0014.7-12.015A166.031 166.031 0 00330 165C330 74.019 255.981 0 165 0zm134.174 180H165c-24.813 0-45 20.187-45 45s20.187 45 45 45c8.271 0 15 6.729 15 15s-6.729 15-15 15c-74.439 0-135-60.561-135-135S90.561 30 165 30s135 60.561 135 135c0 5.015-.276 10.029-.826 15z"/><circle cx="226.413" cy="103.588" r="22.5"/><circle cx="165.002" cy="78.15" r="22.5"/><circle cx="103.589" cy="103.587" r="22.5"/></symbol>
    <symbol id="picture" viewBox="0 0 330 330"><path d="M195 150c27.57 0 50-22.43 50-50s-22.43-50-50-50-50 22.43-50 50 22.43 50 50 50zm0-70c11.028 0 20 8.972 20 20s-8.972 20-20 20-20-8.972-20-20 8.972-20 20-20z"/><path d="M315 0H15C6.716 0 0 6.716 0 15v300c0 8.284 6.716 15 15 15h300c8.284 0 15-6.716 15-15V15c0-8.284-6.716-15-15-15zm-15 30v179.636l-32.957-44.388a14.999 14.999 0 00-24.086 0l-47.531 64.016-78.093-112.802a15 15 0 00-24.666 0L30 206.981V30h270zM30 300v-40.315l75-108.333 77.667 112.186a15 15 0 0024.376.404L255 199.352l45 60.607V300H30z"/></symbol>
  </defs>
</svg>