<svg viewBox="0 0 300 300" width="600" height="600"
  xmlns="http://www.w3.org/2000/svg">
  <path d="m296.34 0h-292.68a3.66 3.66 0 0 0 -3.66 3.66v292.68a3.66 3.66 0 0 0 3.66 3.66h292.68a3.66 3.66 0 0 0 3.66-3.66v-292.68a3.66 3.66 0 0 0 -3.66-3.66zm-142.68 292.69v-15.36a3.63 3.63 0 0 0 -2.75-3.52v-19.32h-1.82v19.32a3.63 3.63 0 0 0 -2.75 3.52v15.36h-139.03v-85.69h96a3.66 3.66 0 0 0 3.53-2.75h12.92v-1.82h-12.89a3.66 3.66 0 0 0 -3.53-2.75h-96v-99.36h32.55a3.65 3.65 0 0 0 3.53-2.74h12.92v-1.83h-12.92a3.64 3.64 0 0 0 -3.53-2.75h-32.58v-85.69h139v58.21a3.66 3.66 0 0 0 2.75 3.53v22.06h1.82v-22.06a3.66 3.66 0 0 0 2.75-3.53v-58.21h139v85.69h-31.55a3.63 3.63 0 0 0 -3.52 2.74h-13.84v1.83h13.84a3.64 3.64 0 0 0 3.52 2.74h31.61v99.36h-96a3.66 3.66 0 0 0 -3.53 2.75h-13.87v1.82h13.84a3.66 3.66 0 0 0 3.53 2.75h96v85.69z" fill="#fff2db"/>
  <g fill="none" stroke-miterlimit="10" stroke-width="8">
    <path d="m177.62 46.43-27.62 47.84-27.62-47.84h-92l119.62 207.14 119.59-207.14z" stroke="#eba224"/>
    <path d="m177.62 46.43-27.62 47.84-27.62-47.84h-44.14l71.76 124.28 71.76-124.28z" stroke="#2d3748"/>
  </g>
</svg>
